<?xml version="1.0" encoding="UTF-8"?>
<svg width="198px" height="78px" viewBox="0 0 198 78" version="1.1" xmlns="http://www.w3.org/2000/svg" xmlns:xlink="http://www.w3.org/1999/xlink">
    <defs></defs>
    <g id="Page-1" stroke="none" stroke-width="1" fill="none" fill-rule="evenodd">
        <g id="f1-logo" fill-rule="nonzero">
            <path d="M108.705,0.298 C98.607,10.446 85.887,20.312 68.863,20.312 L58.721,34.769 L78.879,34.744 L64.154,55.711 L44.004,55.711 L28.533,77.688 L0.072,77.688 L54.439,0.306 L108.705,0.298 Z" id="Shape" fill="#FFFFFF"></path>
            <polygon id="Shape" fill="#E12826" points="109.783 72.064 147.041 74.549 146.904 74.748 98.336 77.688 114.154 55.176 158.68 57.924 158.543 58.125 117.76 60.781 117.588 60.982 154.807 63.463 154.664 63.656 113.834 66.32 113.717 66.527 150.896 68.992 150.752 69.201 109.926 71.873"></polygon>
            <polygon id="Shape" fill="#E12826" points="197.219 3.105 135.232 5.902 135.1 6.087 193.5 8.4 193.365 8.582 131.379 11.38 131.24 11.574 189.65 13.878 189.508 14.08 127.5 16.894 127.373 17.085 185.773 19.402 185.631 19.601 123.65 22.38 123.512 22.574 181.912 24.896 181.775 25.078 119.773 27.904 119.646 28.085 178.025 30.402 177.914 30.587 115.914 33.39 115.797 33.566 174.156 35.914 174.047 36.082 112.027 38.88 111.945 39.082 170.322 41.386 170.191 41.58 108.205 44.369 108.062 44.568 166.432 46.923 166.299 47.107 104.342 49.865 104.205 50.057 162.582 52.396 162.439 52.586 92.578 55.727 131.523 0.298 197.354 2.904"></polygon>
        </g>
    </g>
</svg>